# Exported from Wings 3D 1.5.4
mtllib stony.mtl
o Cube1
#32 vertices, 30 faces
v -1.00000000 -1.50000000 -1.00000000
v -1.00000000 -1.50000000 1.00000000
v -1.00000000 1.50000000 -1.00000000
v -1.00000000 1.50000000 1.00000000
v 1.00000000 -1.50000000 -1.00000000
v 1.00000000 -1.50000000 1.00000000
v 1.00000000 1.50000000 -1.00000000
v 1.00000000 1.50000000 1.00000000
v 1.20000000 -1.30000000 0.80000000
v 1.20000000 -1.30000000 -0.80000000
v 1.20000000 1.30000000 -0.80000000
v 1.20000000 1.30000000 0.80000000
v -0.80000000 1.30000000 1.20000000
v -0.80000000 -1.30000000 1.20000000
v 0.80000000 -1.30000000 1.20000000
v 0.80000000 1.30000000 1.20000000
v -0.80000000 -1.30000000 -1.20000000
v -0.80000000 1.30000000 -1.20000000
v 0.80000000 1.30000000 -1.20000000
v 0.80000000 -1.30000000 -1.20000000
v -1.20000000 -1.30000000 -0.80000000
v -1.20000000 -1.30000000 0.80000000
v -1.20000000 1.30000000 0.80000000
v -1.20000000 1.30000000 -0.80000000
v -0.80000000 1.70000000 -0.80000000
v -0.80000000 1.70000000 0.80000000
v 0.80000000 1.70000000 0.80000000
v 0.80000000 1.70000000 -0.80000000
v -0.80000000 -1.70000000 0.80000000
v -0.80000000 -1.70000000 -0.80000000
v 0.80000000 -1.70000000 -0.80000000
v 0.80000000 -1.70000000 0.80000000
vn -0.57735027 -0.57735027 -0.57735027
vn -0.57735027 -0.57735027 0.57735027
vn -0.57735027 0.57735027 -0.57735027
vn -0.57735027 0.57735027 0.57735027
vn 0.57735027 -0.57735027 -0.57735027
vn 0.57735027 -0.57735027 0.57735027
vn 0.57735027 0.57735027 -0.57735027
vn 0.57735027 0.57735027 0.57735027
vn 0.92387953 -0.27059805 0.27059805
vn 0.92387953 -0.27059805 -0.27059805
vn 0.92387953 0.27059805 -0.27059805
vn 0.92387953 0.27059805 0.27059805
vn -0.27059805 0.27059805 0.92387953
vn -0.27059805 -0.27059805 0.92387953
vn 0.27059805 -0.27059805 0.92387953
vn 0.27059805 0.27059805 0.92387953
vn -0.27059805 -0.27059805 -0.92387953
vn -0.27059805 0.27059805 -0.92387953
vn 0.27059805 0.27059805 -0.92387953
vn 0.27059805 -0.27059805 -0.92387953
vn -0.92387953 -0.27059805 -0.27059805
vn -0.92387953 -0.27059805 0.27059805
vn -0.92387953 0.27059805 0.27059805
vn -0.92387953 0.27059805 -0.27059805
vn -0.27059805 0.92387953 -0.27059805
vn -0.27059805 0.92387953 0.27059805
vn 0.27059805 0.92387953 0.27059805
vn 0.27059805 0.92387953 -0.27059805
vn -0.27059805 -0.92387953 0.27059805
vn -0.27059805 -0.92387953 -0.27059805
vn 0.27059805 -0.92387953 -0.27059805
vn 0.27059805 -0.92387953 0.27059805
g Cube1_default
usemtl default
s 1
f 1//1 17//17 20//20 5//5
f 1//1 21//21 24//24 3//3
f 1//1 30//30 29//29 2//2
f 2//2 14//14 13//13 4//4
f 2//2 22//22 21//21 1//1
f 2//2 29//29 32//32 6//6
f 3//3 18//18 17//17 1//1
f 3//3 24//24 23//23 4//4
f 3//3 25//25 28//28 7//7
f 4//4 13//13 16//16 8//8
f 4//4 23//23 22//22 2//2
f 4//4 26//26 25//25 3//3
f 5//5 10//10 9//9 6//6
f 5//5 20//20 19//19 7//7
f 5//5 31//31 30//30 1//1
f 6//6 9//9 12//12 8//8
f 6//6 15//15 14//14 2//2
f 6//6 32//32 31//31 5//5
f 7//7 11//11 10//10 5//5
f 7//7 19//19 18//18 3//3
f 7//7 28//28 27//27 8//8
f 8//8 12//12 11//11 7//7
f 8//8 16//16 15//15 6//6
f 8//8 27//27 26//26 4//4
f 10//10 11//11 12//12 9//9
f 14//14 15//15 16//16 13//13
f 18//18 19//19 20//20 17//17
f 22//22 23//23 24//24 21//21
f 26//26 27//27 28//28 25//25
f 30//30 31//31 32//32 29//29
