<?xml version="1.0" encoding="UTF-8" standalone="no"?>
<!-- Created with Inkscape (http://www.inkscape.org/) -->

<svg
   xmlns:dc="http://purl.org/dc/elements/1.1/"
   xmlns:cc="http://creativecommons.org/ns#"
   xmlns:rdf="http://www.w3.org/1999/02/22-rdf-syntax-ns#"
   xmlns:svg="http://www.w3.org/2000/svg"
   xmlns="http://www.w3.org/2000/svg"
   xmlns:sodipodi="http://sodipodi.sourceforge.net/DTD/sodipodi-0.dtd"
   xmlns:inkscape="http://www.inkscape.org/namespaces/inkscape"
   width="1024"
   height="1024"
   id="svg3030"
   version="1.1"
   inkscape:version="0.92.0 r"
   sodipodi:docname="icon_rounded.svg"
   inkscape:export-filename="/home/sonea/projekte/ggj17/icon.png"
   inkscape:export-xdpi="24"
   inkscape:export-ydpi="24">
  <defs
     id="defs3032" />
  <sodipodi:namedview
     id="base"
     pagecolor="#ffffff"
     bordercolor="#666666"
     borderopacity="1.0"
     inkscape:pageopacity="0.0"
     inkscape:pageshadow="2"
     inkscape:zoom="0.24748738"
     inkscape:cx="208.91137"
     inkscape:cy="825.63112"
     inkscape:document-units="px"
     inkscape:current-layer="layer1"
     showgrid="false"
     inkscape:window-width="1280"
     inkscape:window-height="752"
     inkscape:window-x="0"
     inkscape:window-y="0"
     inkscape:window-maximized="1"
     showguides="false" />
  <metadata
     id="metadata3035">
    <rdf:RDF>
      <cc:Work
         rdf:about="">
        <dc:format>image/svg+xml</dc:format>
        <dc:type
           rdf:resource="http://purl.org/dc/dcmitype/StillImage" />
        <dc:title />
      </cc:Work>
    </rdf:RDF>
  </metadata>
  <g
     inkscape:label="Layer 1"
     inkscape:groupmode="layer"
     id="layer1"
     transform="translate(0,-28.362183)">
    <rect
       style="fill:#80b3ff;stroke:none;stroke-width:5;stroke-miterlimit:4;stroke-dasharray:none;stroke-dashoffset:0"
       id="rect4573"
       width="1022.6088"
       height="1026.3149"
       x="3.7062364"
       y="28.067503"
       ry="159.6041"
       inkscape:export-xdpi="23.692045"
       inkscape:export-ydpi="23.692045" />
    <path
       style="fill:#000080;fill-rule:evenodd;stroke:#000080;stroke-width:20;stroke-linecap:butt;stroke-linejoin:miter;stroke-miterlimit:4;stroke-dasharray:none;stroke-opacity:1"
       d="m 6.8330265,897.54565 c 24.8426805,-28.25763 79.4581745,-69.2054 135.6175935,-96.5032 39.75958,-19.32622 80.29303,-31.81063 111.58302,-28.10618 0,0 62.73549,5.83321 82.17538,22.27333 -45.37973,23.74539 -111.9174,72.06644 -24.88329,99.84668 42.74018,2.48308 56.2428,-12.78928 75.77778,-31.51674 40.97978,-39.28581 107.18364,-62.67985 141.70601,-63.19714 20.90536,-0.22905 30.17767,4.97194 33.99508,13.0635 11.23804,23.82071 -24.79909,72.6927 49.51287,81.82622 l 337.16741,2.46626 c 31.59898,-1.03374 74.03902,-25.08965 74.03902,-25.08965 -1.1803,36.09671 9.1128,84.23242 -47.43527,138.29657 -33.89669,34.588 -81.70243,46.446 -114.45333,44.1763 l -706.7148,0.1847 C 96.777454,1051.2249 74.546945,1027.8691 50.416754,1009.3901 24.022717,982.1571 5.7934629,943.7833 6.8330265,897.54565 Z"
       id="path4561"
       inkscape:connector-curvature="0"
       sodipodi:nodetypes="cssccscscccccccc"
       inkscape:export-xdpi="23.692045"
       inkscape:export-ydpi="23.692045" />
    <path
       style="fill:#ffffff;fill-rule:evenodd;stroke:none;stroke-width:10;stroke-linecap:butt;stroke-linejoin:miter;stroke-miterlimit:4;stroke-dasharray:none;stroke-opacity:1"
       d="m 141.34455,790.3655 c 21.00592,-6.83697 45.13456,-12.79846 90.60167,-1.20725 17.15584,20.73799 54.89901,12.5044 82.70577,30.37595 10.03993,-6.34358 32.88525,-19.10444 39.44667,-22.28635 -9.35681,-7.92157 -16.13235,-16.46339 -36.5211,-22.30647 -7.533,-2.42309 -15.77871,-4.58266 -25.91808,-6.53186 -9.379,-2.00517 -18.60589,-3.40187 -27.74724,-4.4564 -8.41129,-1.19409 -16.38571,-1.8732 -25.0015,-1.75245 -6.3678,0.32272 -12.60173,0.54959 -18.92582,1.61535 -6.78402,1.31085 -13.39623,2.73763 -20.3511,4.62414 -5.51382,1.30168 -10.96555,2.9232 -17.09509,4.98314 -6.6508,2.5746 -13.42581,4.42546 -20.6152,7.39757 -6.899,2.9458 -13.42132,6.25088 -20.57898,9.54463 z"
       id="path4565"
       inkscape:connector-curvature="0"
       sodipodi:nodetypes="ccccccccccccc"
       inkscape:export-xdpi="23.692045"
       inkscape:export-ydpi="23.692045" />
    <ellipse
       style="fill:#ffffff;stroke:#ffffff;stroke-width:20;stroke-miterlimit:4;stroke-dasharray:none;stroke-dashoffset:0"
       id="path4500"
       cx="765.74487"
       cy="716.64789"
       rx="223.03673"
       ry="227.14285"
       inkscape:export-xdpi="23.692045"
       inkscape:export-ydpi="23.692045" />
    <path
       style="fill:#ffffff;fill-rule:evenodd;stroke:none;stroke-width:10;stroke-linecap:butt;stroke-linejoin:miter;stroke-miterlimit:4;stroke-dasharray:none;stroke-opacity:1"
       d="m 404.87174,836.14576 c 33.32245,-4.6588 77.65959,-3.86489 95.21649,-16.95329 3.96852,-0.74475 7.89535,-1.39892 11.73221,-1.9422 26.19763,-3.70941 48.20093,-2.24881 50.64271,10.84753 l 3.06406,-14.14213 -3.51584,-12.62691 -9.04075,-8.08122 c -3.79968,-0.84179 -6.48029,-1.68359 -11.55206,-2.52538 -5.63971,-0.49988 -11.6365,-0.7217 -19.32043,-0.23722 -6.78259,0.80196 -14.2054,1.70843 -21.86519,3.3876 -7.79721,1.77758 -14.29812,3.81442 -20.94995,5.82107 -6.80475,2.11057 -13.69878,4.42486 -20.6821,7.07107 -6.43267,2.79017 -11.81019,5.2421 -17.54577,8.05057 l -15.15719,7.84401 c -7.02132,3.75023 -14.24237,8.78778 -21.02619,13.4865 z"
       id="path4567"
       inkscape:connector-curvature="0"
       sodipodi:nodetypes="ccscccccccccccc"
       inkscape:export-xdpi="23.692045"
       inkscape:export-ydpi="23.692045" />
    <ellipse
       style="fill:#ffffff;stroke:#ffffff;stroke-width:20;stroke-miterlimit:4;stroke-dasharray:none;stroke-dashoffset:0"
       id="path4502"
       cx="492.9866"
       cy="350.93359"
       rx="177.57701"
       ry="178.57143"
       inkscape:export-xdpi="23.692045"
       inkscape:export-ydpi="23.692045" />
    <ellipse
       style="fill:#ffffff;stroke:#ffffff;stroke-width:20;stroke-miterlimit:4;stroke-dasharray:none;stroke-dashoffset:0"
       id="path4504"
       cx="153.45937"
       cy="233.79077"
       rx="119.33175"
       ry="112.85714"
       inkscape:export-xdpi="23.692045"
       inkscape:export-ydpi="23.692045" />
    <path
       style="fill:#ff6600;fill-rule:evenodd;stroke:#ff6600;stroke-width:20;stroke-linecap:butt;stroke-linejoin:miter;stroke-miterlimit:4;stroke-dasharray:none;stroke-opacity:1"
       d="m 125.04704,329.50504 51.14218,114.28571 19.88862,-120 c -23.67693,-14.67679 -47.35387,-10.03338 -71.0308,5.71429 z"
       id="path4506"
       inkscape:connector-curvature="0"
       sodipodi:nodetypes="cccc"
       inkscape:export-xdpi="23.692045"
       inkscape:export-ydpi="23.692045" />
    <ellipse
       style="fill:#000000;stroke:#000000;stroke-width:10;stroke-miterlimit:4;stroke-dasharray:none;stroke-dashoffset:0"
       id="path4512"
       cx="93.82531"
       cy="278.07645"
       rx="25.571089"
       ry="20"
       inkscape:export-xdpi="23.692045"
       inkscape:export-ydpi="23.692045" />
    <ellipse
       style="fill:#000000;stroke:#000000;stroke-width:10.00006512;stroke-miterlimit:4;stroke-dasharray:none;stroke-dashoffset:0"
       id="path4512-3"
       cx="532.68207"
       cy="-48.422222"
       rx="25.671864"
       ry="19.921749"
       transform="matrix(0.54268548,0.83993599,-0.83715601,0.54696417,0,0)"
       inkscape:export-xdpi="23.692045"
       inkscape:export-ydpi="23.692045" />
    <ellipse
       style="fill:#000000;stroke:#000000;stroke-width:10.00006824;stroke-miterlimit:4;stroke-dasharray:none;stroke-dashoffset:0"
       id="path4512-3-6"
       cx="591.87286"
       cy="180.40254"
       rx="25.617531"
       ry="19.964014"
       transform="matrix(0.82087451,0.57110861,-0.56681119,0.82384773,0,0)"
       inkscape:export-xdpi="23.692045"
       inkscape:export-ydpi="23.692045" />
    <ellipse
       style="fill:#000000;stroke:#000000;stroke-width:10.00000457;stroke-miterlimit:4;stroke-dasharray:none;stroke-dashoffset:0"
       id="path4512-3-6-7"
       cx="520.80255"
       cy="466.21194"
       rx="25.573225"
       ry="19.998348"
       transform="matrix(0.99244931,0.12265548,-0.12131336,0.99261426,0,0)"
       inkscape:export-xdpi="23.692045"
       inkscape:export-ydpi="23.692045" />
    <path
       style="fill:#ffd42a;fill-rule:evenodd;stroke:none;stroke-width:1px;stroke-linecap:butt;stroke-linejoin:miter;stroke-opacity:1"
       d="m -537.91502,-63.859495 c 12.01507,56.4057796 4.83698,112.23961 -27.53587,167.322665 -95.34174,114.64343 -234.27921,102.02684 -239.9297,56.5781 178.39304,-39.48898 206.68395,-117.895435 267.46557,-223.900765 z"
       id="path5172"
       inkscape:connector-curvature="0"
       sodipodi:nodetypes="cccc" />
    <path
       style="fill:#ffd42a;fill-rule:evenodd;stroke:none;stroke-width:1px;stroke-linecap:butt;stroke-linejoin:miter;stroke-opacity:1"
       d="m -537.91502,-63.859495 c -17.94139,54.8094996 -52.19202,99.48425 -107.85175,130.85525 -140.02502,51.246075 -253.8288,-29.44779 -235.8873,-71.5858704 174.09252,55.4549804 237.93722,1.86575 343.73905,-59.2693796 z"
       id="path5172-7"
       inkscape:connector-curvature="0"
       sodipodi:nodetypes="cccc" />
    <path
       style="fill:#ffd42a;fill-rule:evenodd;stroke:none;stroke-width:1px;stroke-linecap:butt;stroke-linejoin:miter;stroke-opacity:1"
       d="m -556.81792,-61.19615 c 32.29947,47.777795 46.59322,102.226205 37.25092,165.43116 -45.36597,142.03906 -178.88802,182.47002 -201.17702,142.46106 150.54679,-103.53318 147.35496,-186.826405 163.9261,-307.89222 z"
       id="path5172-3"
       inkscape:connector-curvature="0"
       sodipodi:nodetypes="cccc" />
    <rect
       style="fill:#800000;stroke:none;stroke-width:20;stroke-miterlimit:4;stroke-dasharray:none;stroke-dashoffset:0"
       id="rect5174"
       width="26.263973"
       height="42.426422"
       x="531.30457"
       y="-43.100502"
       ry="8.0812206"
       transform="matrix(-0.99783198,-0.06581287,-0.06581287,0.99783198,0,0)" />
    <rect
       style="fill:#800000;stroke:none;stroke-width:20;stroke-miterlimit:4;stroke-dasharray:none;stroke-dashoffset:0"
       id="rect5174-6"
       width="26.263973"
       height="42.426422"
       x="499.95078"
       y="-247.37769"
       ry="8.0812206"
       transform="matrix(-0.94963547,0.31335679,0.31335679,0.94963547,0,0)" />
    <rect
       style="fill:#800000;stroke:none;stroke-width:20;stroke-miterlimit:4;stroke-dasharray:none;stroke-dashoffset:0"
       id="rect5174-6-5"
       width="26.263973"
       height="42.426422"
       x="499.23447"
       y="187.07758"
       ry="8.0812206"
       transform="matrix(-0.8857139,-0.4642315,-0.4642315,0.8857139,0,0)" />
    <g
       id="g5234"
       transform="matrix(-0.98000235,-0.19898591,-0.19898591,0.98000235,663.62582,21.79715)">
      <path
         sodipodi:nodetypes="cccc"
         inkscape:connector-curvature="0"
         id="path5172-7-3"
         d="M 357.79797,642.303 C 339.85658,697.1125 305.60595,741.78725 249.94622,773.15825 109.9212,824.40432 -3.88258,743.71046 14.05892,701.57238 188.15144,757.02736 251.99614,703.43813 357.79797,642.303 Z"
         style="fill:#ffd42a;fill-rule:evenodd;stroke:none;stroke-width:1px;stroke-linecap:butt;stroke-linejoin:miter;stroke-opacity:1" />
      <rect
         transform="matrix(-0.8857139,-0.4642315,-0.4642315,0.8857139,0,0)"
         ry="8.0812206"
         y="383.79001"
         x="-624.48853"
         height="42.426422"
         width="26.263973"
         id="rect5174-6-5-5"
         style="fill:#800000;stroke:none;stroke-width:20;stroke-miterlimit:4;stroke-dasharray:none;stroke-dashoffset:0" />
    </g>
  </g>
</svg>
